<?xml version="1.0" standalone="no"?>
<!DOCTYPE svg PUBLIC "-//W3C//DTD SVG 20010904//EN"
 "http://www.w3.org/TR/2001/REC-SVG-20010904/DTD/svg10.dtd">
<svg version="1.0" xmlns="http://www.w3.org/2000/svg"
 width="700.000000pt" height="700.000000pt" viewBox="0 0 700.000000 700.000000"
 preserveAspectRatio="xMidYMid meet">
<metadata>
Created by potrace 1.14, written by Peter Selinger 2001-2017
</metadata>
<g transform="translate(0.000000,700.000000) scale(0.100000,-0.100000)"
fill="#000000" stroke="none">
<path d="M3279 6996 c-2 -2 -40 -6 -84 -10 -99 -8 -164 -15 -190 -21 -11 -2
-42 -7 -70 -10 -89 -11 -358 -74 -476 -111 -807 -254 -1479 -773 -1934 -1494
-86 -137 -221 -408 -280 -562 -26 -68 -51 -132 -55 -143 -46 -106 -136 -483
-155 -645 -3 -30 -8 -62 -10 -70 -18 -74 -27 -583 -13 -725 4 -38 10 -99 14
-135 8 -98 49 -312 88 -461 195 -754 649 -1430 1275 -1903 95 -72 208 -150
246 -172 11 -6 61 -35 110 -64 343 -201 669 -321 1125 -415 19 -4 151 -23 212
-31 134 -16 265 -22 478 -19 129 2 244 6 255 8 11 3 52 8 90 11 39 4 81 8 95
11 14 2 68 11 120 20 391 65 828 229 1180 440 739 445 1292 1149 1544 1965 45
148 97 373 111 480 3 25 8 52 10 60 2 8 7 47 10 85 4 39 9 84 12 100 2 17 6
138 8 270 2 216 -2 309 -20 462 -70 589 -285 1143 -635 1633 -180 253 -422
504 -687 713 -60 48 -270 193 -338 234 -266 161 -578 294 -895 382 -89 24
-287 67 -350 76 -25 3 -54 8 -65 9 -11 2 -49 7 -85 11 -36 4 -76 9 -90 12 -28
5 -546 14 -551 9z m566 -99 c17 -3 53 -8 80 -12 28 -3 68 -8 90 -11 33 -4 159
-29 305 -60 247 -52 656 -218 915 -372 60 -36 258 -165 279 -183 6 -5 47 -37
92 -72 584 -449 1022 -1124 1204 -1854 41 -164 67 -317 87 -513 16 -150 9
-623 -11 -750 -2 -14 -7 -46 -10 -71 -63 -461 -259 -977 -519 -1369 -47 -70
-175 -249 -187 -260 -3 -3 -25 -30 -50 -60 -464 -565 -1177 -996 -1895 -1146
-261 -54 -414 -69 -720 -69 -263 0 -357 6 -545 36 -467 73 -927 250 -1320 507
-100 65 -255 176 -270 192 -3 3 -45 40 -95 82 -181 154 -355 338 -502 533 -63
83 -203 290 -203 300 0 3 -11 22 -23 43 -154 245 -337 726 -391 1027 -22 119
-26 144 -31 180 -3 22 -8 56 -10 75 -5 34 -13 115 -20 195 -5 60 -5 381 0 454
12 169 40 379 69 506 80 356 191 646 371 970 46 84 190 299 262 392 251 326
581 621 929 831 155 93 409 219 509 253 22 7 45 16 50 20 33 22 410 131 534
154 14 3 35 7 46 9 72 14 211 33 300 41 39 4 72 9 74 11 6 5 572 -3 606 -9z"/>
<path d="M5160 5814 c-604 -226 -721 -269 -790 -294 -41 -15 -120 -44 -175
-65 -55 -20 -179 -66 -275 -102 -96 -36 -179 -69 -183 -73 -4 -4 123 -89 284
-189 l292 -182 31 28 c17 15 33 31 36 34 3 3 61 56 130 119 69 62 165 150 214
194 49 44 98 89 110 99 11 10 39 35 61 56 22 20 92 84 155 141 136 122 289
261 304 275 6 6 22 19 36 28 44 31 -1 17 -230 -69z"/>
<path d="M5362 5843 c-33 -40 -140 -178 -182 -233 -14 -18 -88 -114 -166 -214
-275 -355 -480 -621 -496 -644 -16 -23 -12 -29 188 -290 113 -147 208 -268
212 -270 5 -1 27 66 51 150 23 84 94 333 156 553 246 870 276 977 272 982 -3
2 -18 -13 -35 -34z"/>
<path d="M4073 4458 c-50 -51 -111 -116 -134 -144 -24 -27 -69 -79 -99 -114
-64 -75 -114 -132 -191 -221 -31 -35 -107 -122 -169 -194 -62 -71 -124 -143
-139 -160 -15 -16 -71 -88 -126 -160 -262 -343 -386 -511 -560 -755 -209 -294
-288 -402 -310 -420 -13 -10 -40 12 -163 136 -226 228 -410 398 -602 554 -96
78 -184 149 -195 158 -42 36 -218 164 -336 247 -138 96 -139 97 100 -115 109
-96 151 -138 236 -235 33 -37 65 -73 70 -79 6 -6 31 -38 55 -71 25 -33 53 -69
62 -80 87 -104 234 -333 347 -544 149 -275 331 -738 387 -983 10 -43 21 -78
24 -78 3 0 13 21 22 47 119 357 255 688 434 1048 262 532 421 824 592 1090 35
55 72 113 81 129 76 133 532 799 677 989 20 26 34 47 32 47 -2 0 -45 -42 -95
-92z"/>
<path d="M3236 4264 c19 -69 13 -105 -41 -228 l-17 -40 36 32 c57 50 113 74
171 74 29 1 57 -2 64 -6 15 -10 14 0 -5 29 -9 14 -19 54 -22 90 -5 64 -5 65
-31 58 -38 -10 -116 -6 -142 7 -21 12 -21 11 -13 -16z"/>
<path d="M4162 4068 c9 -23 22 -109 21 -143 -2 -106 -45 -212 -134 -329 -29
-38 -46 -65 -38 -60 8 4 41 27 74 50 72 49 146 88 200 105 57 18 153 13 219
-10 52 -18 57 -19 51 -3 -34 80 -55 155 -55 198 0 49 23 136 42 161 8 9 -3 9
-38 -2 -120 -35 -217 -22 -338 43 -5 3 -7 -2 -4 -10z"/>
<path d="M3232 3693 c-88 -91 -276 -308 -419 -483 -96 -119 -314 -426 -377
-533 -69 -118 -109 -197 -104 -203 3 -2 33 38 68 89 174 251 674 921 739 988
13 13 42 49 64 79 23 30 63 79 90 108 28 28 46 52 42 52 -5 0 -51 -44 -103
-97z"/>
<path d="M802 3371 c14 -22 100 -87 111 -83 5 1 6 -1 3 -6 -6 -10 84 -79 96
-74 5 1 7 -1 5 -6 -4 -14 122 -134 134 -126 8 4 9 3 5 -5 -8 -12 77 -101 96
-101 6 0 9 -3 5 -6 -3 -3 5 -18 18 -32 43 -49 60 -69 85 -102 14 -19 35 -44
48 -57 13 -13 20 -23 16 -23 -3 0 -1 -7 6 -15 7 -8 17 -12 23 -8 5 3 7 2 4 -3
-7 -12 60 -99 76 -99 7 0 12 -7 12 -15 0 -8 12 -31 26 -50 14 -19 43 -63 64
-98 28 -46 43 -61 54 -57 12 5 13 3 4 -6 -9 -9 -5 -23 20 -63 18 -28 39 -63
46 -78 8 -16 18 -28 23 -28 5 0 7 -4 4 -9 -3 -5 1 -14 9 -21 8 -7 15 -19 15
-27 0 -8 5 -11 12 -7 6 4 8 3 5 -3 -4 -6 13 -50 37 -97 25 -47 42 -86 39 -86
-3 0 0 -7 7 -15 14 -17 80 -164 80 -179 0 -5 10 -21 23 -34 12 -14 16 -22 9
-18 -13 8 -10 -1 29 -91 11 -24 19 -47 19 -52 0 -4 9 -30 19 -57 11 -27 32
-90 47 -141 15 -52 32 -89 37 -86 6 3 7 1 3 -5 -8 -13 24 -122 36 -122 7 0 6
9 -8 47 -4 10 -8 32 -9 48 -2 17 -8 42 -14 58 -6 15 -7 27 -3 27 4 0 -2 7 -12
15 -14 11 -16 15 -5 15 8 0 10 3 4 8 -5 4 -10 13 -11 20 -1 6 -2 21 -2 33 -1
12 -6 17 -14 13 -7 -4 -8 -3 -4 5 10 15 -53 213 -65 205 -5 -3 -6 1 -3 9 2 7
-1 27 -7 43 -11 27 -13 34 -17 58 -1 5 -9 3 -17 -4 -10 -9 -15 -9 -15 -1 0 6
5 11 10 11 6 0 10 7 10 16 0 9 -5 12 -12 8 -6 -4 -8 -3 -5 3 9 14 -39 129 -52
126 -6 -2 -8 3 -5 10 7 19 -22 92 -36 89 -6 -1 -9 2 -6 7 8 12 -14 61 -26 61
-5 0 -6 5 -3 10 3 6 1 10 -6 10 -7 0 -10 3 -6 6 9 9 -32 86 -43 79 -5 -3 -12
0 -16 6 -4 8 -3 9 4 5 18 -11 14 8 -10 53 -12 22 -25 38 -30 35 -5 -3 -8 -2
-7 3 4 23 -3 41 -23 63 -13 14 -23 27 -23 30 0 3 -3 4 -6 3 -3 -1 -6 4 -6 12
0 20 -65 125 -75 119 -4 -3 -6 1 -3 8 5 13 -88 146 -125 178 -12 10 -21 22
-22 27 0 24 -188 224 -202 216 -6 -3 -8 -3 -4 2 10 10 -72 96 -85 88 -6 -3 -7
-2 -4 4 4 6 -11 27 -33 47 -22 20 -40 34 -40 31 0 -3 -15 10 -32 28 -44 45
-93 78 -103 69 -5 -4 -5 -2 -2 4 9 15 -19 38 -34 28 -8 -5 -9 -3 -5 5 5 8 0
14 -13 18 -12 3 -21 10 -21 15 0 5 -4 6 -10 3 -5 -3 -10 -1 -10 4 0 6 -6 11
-14 11 -8 0 -16 6 -19 14 -3 8 -19 21 -36 29 -27 14 -29 14 -19 -2z m343 -263
c5 4 5 1 1 -6 -6 -10 -11 -10 -22 -1 -8 6 -14 14 -14 16 0 3 6 0 13 -6 8 -6
18 -7 22 -3z m200 -197 c3 -5 2 -12 -3 -15 -5 -3 -9 1 -9 9 0 17 3 19 12 6z
m40 -40 c3 -5 2 -12 -3 -15 -5 -3 -9 1 -9 9 0 17 3 19 12 6z m160 -211 c3 -5
1 -10 -4 -10 -6 0 -11 5 -11 10 0 6 2 10 4 10 3 0 8 -4 11 -10z m40 -60 c3 -5
1 -10 -4 -10 -6 0 -11 5 -11 10 0 6 2 10 4 10 3 0 8 -4 11 -10z"/>
</g>
</svg>
