<svg width="628" height="373" viewBox="0 0 628 373" fill="none" xmlns="http://www.w3.org/2000/svg">
<g clip-path="url(#clip0_358_1895)">
<path d="M68.1479 263.044C65.4377 263.336 62.4811 263.773 59.3361 264.414C46.0012 267.129 45.7244 276.184 45.8413 278.26L45.7507 278.203C44.4099 280.354 43.5701 282.531 43.0626 284.585L42.4519 256.834C42.8467 256.011 43.206 255.077 43.5056 254.12C44.5038 257.194 46.14 260.098 47.5505 259.906C49.3846 259.655 50.1842 254.259 49.8421 250.424C52.1744 253.427 56.0996 256.64 57.5803 255.649C58.7636 254.858 58.062 251.599 56.7701 248.637C59.4618 250.258 62.4429 251.324 63.368 250.294C64.6303 248.889 61.6055 244.094 58.8159 241.418C62.5499 241.766 67.2989 241.171 67.6103 239.472C67.8668 238.072 65.0404 236.305 62.0152 235.167C65.0538 234.366 67.8952 232.97 67.801 231.589C67.6891 229.949 63.4705 228.849 59.8311 228.682C62.5762 226.535 65.0984 223.566 64.3271 222.223C63.618 220.989 60.3192 221.467 57.2757 222.554C59.0768 219.979 60.3431 217.078 59.3787 216.085C58.1774 214.848 53.9139 216.983 51.0042 219.343C51.5707 215.666 51.2843 211.025 49.6353 210.605C48.2558 210.254 46.3006 212.954 44.9601 215.894C44.3676 212.808 43.1683 209.878 41.7841 209.878C39.8122 209.878 38.2136 215.824 38.2136 219.697C38.2136 219.916 38.2194 220.122 38.2294 220.319C38.0315 220.09 37.8047 219.85 37.546 219.599C34.7673 216.9 29.3887 213.905 28.0149 215.319C27.0505 216.312 28.3168 219.214 30.1179 221.789C27.0744 220.702 23.7756 220.224 23.0665 221.458C22.1137 223.117 26.1865 227.257 29.497 229.265C29.298 229.241 29.0889 229.221 28.8664 229.206C25.002 228.942 18.9617 230.132 18.8275 232.099C18.7332 233.48 21.5747 234.876 24.6133 235.678C21.5881 236.815 18.7617 238.582 19.0182 239.982C19.3296 241.681 24.0786 242.276 27.8126 241.928C25.023 244.604 21.9982 249.399 23.2605 250.804C24.1856 251.834 27.1667 250.768 29.8583 249.147C28.5665 252.109 27.8649 255.368 29.0482 256.159C30.6118 257.205 34.9004 253.565 37.1614 250.432C36.931 254.264 37.848 259.529 39.6675 259.737C40.4284 259.824 41.2346 259.012 41.9623 257.763L39.9014 287.592C39.4197 291.066 42.5011 293.333 42.7765 294.764L43.221 314.964C42.7193 313.526 42.0436 312.053 41.1328 310.592L41.0422 310.648C41.159 308.572 40.8821 299.518 27.5474 296.803C24.4024 296.162 21.4458 295.725 18.7356 295.433C15.5365 295.089 14.2885 299.468 17.1786 300.883C21.364 302.931 25.3011 305.512 27.3532 308.568C32.5998 316.383 39.8489 311.866 40.8796 311.164C42.0308 313.081 42.7857 315.011 43.2625 316.848L43.4985 327.576C43.4407 327.83 43.4007 327.972 43.3975 327.982L43.5082 328.015L44.0794 353.976L49.3788 353.934L47.4833 327.397C47.8018 325.966 48.7817 321.089 47.4833 316.024L45.5878 295.174C45.6954 295.722 45.5831 295.158 45.5878 295.174L43.1153 286.982C43.4748 284.447 44.3092 281.596 46.0039 278.775C47.0345 279.477 54.2837 283.994 59.5302 276.18C61.5824 273.123 65.5195 270.542 69.7049 268.494C72.5949 267.079 71.347 262.7 68.1479 263.044ZM43.9402 324.468L43.8403 319.928C44.0418 321.644 44.0316 323.194 43.9402 324.468Z" fill="#F2F2F2"/>
<path d="M0 355.215C0 355.781 0.454455 356.235 1.02037 356.235H626.323C626.889 356.235 627.344 355.781 627.344 355.215C627.344 354.649 626.889 354.194 626.323 354.194H1.02037C0.454455 354.194 0 354.649 0 355.215Z" fill="#3F3D56"/>
<path d="M379.473 356.12C405.044 356.12 425.774 335.39 425.774 309.819C425.774 284.248 405.044 263.519 379.473 263.519C353.902 263.519 333.173 284.248 333.173 309.819C333.173 335.39 353.902 356.12 379.473 356.12Z" fill="#3F3D56"/>
<path d="M379.473 340.686C396.521 340.686 410.34 326.867 410.34 309.82C410.34 292.772 396.521 278.953 379.473 278.953C362.426 278.953 348.606 292.772 348.606 309.82C348.606 326.867 362.426 340.686 379.473 340.686Z" fill="white"/>
<path d="M379.473 327.396C389.181 327.396 397.05 319.527 397.05 309.819C397.05 300.112 389.181 292.242 379.473 292.242C369.766 292.242 361.896 300.112 361.896 309.819C361.896 319.527 369.766 327.396 379.473 327.396Z" fill="#3F3D56"/>
<path d="M111.96 356.12C137.531 356.12 158.261 335.39 158.261 309.819C158.261 284.248 137.531 263.519 111.96 263.519C86.3893 263.519 65.6599 284.248 65.6599 309.819C65.6599 335.39 86.3893 356.12 111.96 356.12Z" fill="#3F3D56"/>
<path d="M111.96 340.686C129.008 340.686 142.827 326.867 142.827 309.82C142.827 292.772 129.008 278.953 111.96 278.953C94.9131 278.953 81.0935 292.772 81.0935 309.82C81.0935 326.867 94.9131 340.686 111.96 340.686Z" fill="white"/>
<path d="M442.812 287.799C436.781 272.6 415.705 226.153 378.175 210.782C377.887 210.663 377.583 210.582 377.274 210.538L256.889 193.294C254.905 193.01 253.059 194.367 252.738 196.346L250.628 209.377C250.483 210.272 250.671 211.188 251.162 211.95C257.276 221.435 296.459 285.812 233.713 285.812C171.953 285.812 153.674 240.905 150.93 232.982C150.671 232.233 150.66 231.428 150.899 230.672L169.92 170.438C170.258 169.367 170.071 168.27 169.525 167.393L177.886 151.863L193.202 160.533L201.131 160.629L228.201 174.777L233.713 165.774L177.886 137.928C177.886 137.928 177.981 131.477 159.976 126.333L131.681 113.472L128.251 117.759L136.825 124.618L137.683 129.763L143.685 131.477L155.689 154.628L152.259 161.261L156.422 163.29L155.226 163.019C153.505 162.627 151.748 163.515 151.042 165.133L132.125 208.485C131.835 209.148 131.356 209.711 130.748 210.104L124.01 214.451C123.38 214.857 122.89 215.446 122.604 216.139L114.908 234.808C114.668 235.389 114.599 235.999 114.661 236.589C105.067 238.407 76.8627 246.258 61.373 277.238L79.3787 291.814C79.3787 291.814 107.603 273.552 154.249 292.569C162.357 305.188 174.185 315.661 191.262 316.648C236.285 319.251 310.88 321.823 319.455 311.534C325.732 304.002 330.098 299.299 331.987 297.32C332.653 296.622 333.561 296.219 334.525 296.188L439.514 292.835C442.063 292.753 443.753 290.169 442.812 287.799Z" fill="#8A9AEA"/>
<path d="M153.116 152.913C160.693 152.913 166.835 146.771 166.835 139.194C166.835 131.618 160.693 125.476 153.116 125.476C145.539 125.476 139.397 131.618 139.397 139.194C139.397 146.771 145.539 152.913 153.116 152.913Z" fill="#3F3D56"/>
<path d="M372.815 210.834C372.653 210.834 372.489 210.831 372.325 210.825L257.622 206.385C252.546 206.188 248.199 202.957 246.547 198.153L244.977 193.584C243.696 189.859 244.252 185.868 246.504 182.636C248.756 179.404 252.305 177.498 256.243 177.407L374.752 174.683C378.422 174.599 381.954 176.17 384.35 178.998C386.745 181.825 387.721 185.535 387.028 189.175L384.793 200.908C383.684 206.728 378.689 210.834 372.815 210.834Z" fill="#3F3D56"/>
<path d="M111.96 327.396C121.668 327.396 129.537 319.527 129.537 309.819C129.537 300.112 121.668 292.242 111.96 292.242C102.253 292.242 94.3833 300.112 94.3833 309.819C94.3833 319.527 102.253 327.396 111.96 327.396Z" fill="#3F3D56"/>
<path d="M418.896 259.778C416.15 259.778 413.536 258.308 412.143 255.787L403.453 240.062C402.077 237.571 402.155 234.643 403.663 232.23C405.171 229.816 407.776 228.454 410.611 228.61L426.375 229.418C429.31 229.568 431.948 231.415 433.094 234.123L437.701 245.01C438.544 247.004 438.523 249.189 437.643 251.166C436.762 253.142 435.15 254.619 433.104 255.325L421.423 259.353C420.589 259.641 419.737 259.778 418.896 259.778Z" fill="#3F3D56"/>
<path d="M219.505 364.288C219.375 364.288 219.243 364.28 219.111 364.266L215.61 363.877C214.466 363.749 213.477 363.107 212.894 362.114C212.311 361.122 212.233 359.944 212.68 358.883L230.889 315.636C231.389 314.449 232.493 313.612 233.771 313.452C235.014 313.294 236.227 313.783 237.018 314.753C237.809 315.722 238.043 317.008 237.643 318.193L222.935 361.829C222.439 363.302 221.035 364.288 219.505 364.288Z" fill="#3F3D56"/>
<path d="M314.05 62.4899C314.05 62.4899 307.388 49.1664 308.72 37.1753L286.549 48.6675L287.403 70.484L314.05 62.4899Z" fill="#A0616A"/>
<path d="M300.29 54.8213C311.336 54.8213 320.291 45.8668 320.291 34.8208C320.291 23.7748 311.336 14.8203 300.29 14.8203C289.244 14.8203 280.29 23.7748 280.29 34.8208C280.29 45.8668 289.244 54.8213 300.29 54.8213Z" fill="#A0616A"/>
<path d="M320.721 348.905L308.516 348.904L302.71 301.829L320.723 301.83L320.721 348.905Z" fill="#A0616A"/>
<path d="M278.906 348.628C278.526 349.268 278.326 351.334 278.326 352.078C278.326 354.366 280.18 356.221 282.468 356.221H320.264C321.825 356.221 323.09 354.956 323.09 353.395V351.821C323.09 351.821 324.96 347.092 321.11 341.263C321.11 341.263 316.326 345.827 309.177 338.678L307.069 334.859L291.808 346.019L283.349 347.061C281.499 347.288 279.858 347.025 278.906 348.628Z" fill="#2F2E41"/>
<path d="M284.738 62.49L314.05 58.4929L336.7 69.1517L338.032 151.757C338.032 151.757 282.315 158.419 273.534 149.759C264.753 141.099 271.414 71.8164 271.414 71.8164L284.738 62.49Z" fill="#E6E6E6"/>
<path d="M295.288 39.9158H289.911C289.911 39.9158 285.246 34.1733 285.873 37.6722C286.501 41.171 283.991 44.9367 283.991 44.9367L280.225 43.6815C280.225 43.6815 272.693 12.014 295.288 10.2744C317.882 8.5349 322.903 26.1082 322.903 26.1082C322.903 26.1082 321.648 34.8949 319.137 32.3844C316.627 29.8739 302.819 28.6187 302.819 28.6187L295.288 39.9158Z" fill="#2F2E41"/>
<path d="M281.064 338.325L269.318 341.64L250.94 297.913L268.276 293.02L281.064 338.325Z" fill="#A0616A"/>
<path d="M240.747 349.42C240.555 350.139 240.924 352.182 241.126 352.898C241.747 355.1 244.036 356.381 246.238 355.759L282.612 345.489C284.114 345.065 284.988 343.504 284.564 342.002L284.136 340.488C284.136 340.488 284.651 335.428 279.362 330.864C279.362 330.864 275.998 336.557 267.176 331.619L264.109 328.516L252.455 343.404L244.597 346.704C242.878 347.426 241.228 347.619 240.747 349.42Z" fill="#2F2E41"/>
<path d="M334.035 143.763L338.032 155.849V197.393L326.041 322.781H302.614L299.971 233.272L302.058 189.063L257.38 256.659L277.019 304.937L255.408 319.352C255.408 319.352 223.086 245.69 227.922 238.553C232.758 231.417 276.077 147.162 276.077 147.162C276.077 147.162 334.035 145.096 334.035 143.763Z" fill="#2F2E41"/>
<path d="M346.026 95.7986L352.467 106.349C352.467 106.349 361.574 142.14 352.467 142.285C343.361 142.431 324.976 124.045 324.976 124.045L327.373 114.451L334.035 117.116L332.702 95.7986L346.026 95.7986Z" fill="#A0616A"/>
<path d="M326.041 68.9836C326.041 68.9836 347.358 65.2279 349.357 79.1808C351.355 93.1338 352.467 106.348 352.467 106.348L329.372 108.262L326.041 68.9836Z" fill="#E6E6E6"/>
<path d="M330.668 122.872C332.595 120.166 329.77 114.848 324.359 110.994C318.947 107.14 312.998 106.209 311.07 108.915C309.143 111.62 311.968 116.938 317.38 120.793C322.791 124.647 328.741 125.578 330.668 122.872Z" fill="#A0616A"/>
<path d="M506.286 263.044C503.576 263.336 500.619 263.773 497.474 264.414C484.139 267.129 483.863 276.184 483.979 278.26L483.889 278.203C482.548 280.354 481.708 282.531 481.201 284.585L480.59 256.834C480.985 256.011 481.344 255.077 481.644 254.12C482.642 257.194 484.278 260.098 485.689 259.906C487.523 259.655 488.322 254.259 487.98 250.424C490.313 253.427 494.238 256.64 495.718 255.649C496.902 254.858 496.2 251.599 494.908 248.637C497.6 250.258 500.581 251.324 501.506 250.294C502.768 248.889 499.744 244.094 496.954 241.418C500.688 241.766 505.437 241.171 505.748 239.472C506.005 238.072 503.179 236.305 500.153 235.167C503.192 234.366 506.033 232.97 505.939 231.589C505.827 229.949 501.609 228.849 497.969 228.682C500.714 226.535 503.236 223.566 502.465 222.223C501.756 220.989 498.457 221.467 495.414 222.554C497.215 219.979 498.481 217.078 497.517 216.085C496.315 214.848 492.052 216.983 489.142 219.343C489.709 215.666 489.422 211.025 487.773 210.605C486.394 210.254 484.439 212.954 483.098 215.894C482.506 212.808 481.306 209.878 479.922 209.878C477.95 209.878 476.352 215.824 476.352 219.697C476.352 219.916 476.357 220.122 476.367 220.319C476.17 220.09 475.943 219.85 475.684 219.599C472.905 216.9 467.527 213.905 466.153 215.319C465.189 216.312 466.455 219.214 468.256 221.789C465.212 220.702 461.914 220.224 461.205 221.458C460.252 223.117 464.325 227.257 467.635 229.265C467.436 229.241 467.227 229.221 467.004 229.206C463.14 228.942 457.1 230.132 456.966 232.099C456.871 233.48 459.713 234.876 462.751 235.678C459.726 236.815 456.9 238.582 457.156 239.982C457.468 241.681 462.217 242.276 465.951 241.928C463.161 244.604 460.136 249.399 461.399 250.804C462.324 251.834 465.305 250.768 467.996 249.147C466.705 252.109 466.003 255.368 467.186 256.159C468.75 257.205 473.038 253.565 475.3 250.432C475.069 254.264 475.986 259.529 477.806 259.737C478.566 259.824 479.373 259.012 480.1 257.763L478.04 287.592C477.558 291.066 480.639 293.333 480.915 294.764L481.359 314.964C480.857 313.526 480.182 312.053 479.271 310.592L479.18 310.648C479.297 308.572 479.02 299.518 465.686 296.803C462.541 296.162 459.584 295.725 456.874 295.433C453.675 295.089 452.427 299.468 455.317 300.883C459.502 302.931 463.439 305.512 465.491 308.568C470.738 316.383 477.987 311.866 479.018 311.164C480.169 313.081 480.924 315.011 481.401 316.848L481.637 327.576C481.579 327.83 481.539 327.972 481.536 327.982L481.646 328.015L482.218 353.976L487.517 353.934L485.621 327.397C485.94 325.966 486.92 321.089 485.621 316.024L483.726 295.174C483.833 295.722 483.721 295.158 483.726 295.174L481.253 286.982C481.613 284.447 482.447 281.596 484.142 278.775C485.173 279.477 492.422 283.994 497.668 276.18C499.72 273.123 503.658 270.542 507.843 268.494C510.733 267.079 509.485 262.7 506.286 263.044ZM482.078 324.468L481.978 319.928C482.18 321.644 482.17 323.194 482.078 324.468Z" fill="#F2F2F2"/>
<path d="M444.58 350.745L453.791 348.754L450.497 312.275L436.901 315.214L444.58 350.745Z" fill="#A0616A"/>
<path d="M476.096 343.717C476.487 344.138 476.975 345.665 477.096 346.226C477.47 347.953 476.372 349.655 474.645 350.028L446.117 356.192C444.939 356.447 443.778 355.698 443.523 354.52L443.267 353.332C443.267 353.332 441.084 350.068 443.039 345.04C443.039 345.04 447.395 347.705 451.625 341.143L452.593 337.917L465.932 343.852L472.486 343.258C473.92 343.128 475.116 342.662 476.096 343.717Z" fill="#2F2E41"/>
<path d="M461.057 347.954L468.742 342.499L451.359 310.26L440.016 318.311L461.057 347.954Z" fill="#A0616A"/>
<path d="M487.265 329.092C487.79 329.325 488.84 330.537 489.172 331.005C490.195 332.446 489.856 334.443 488.415 335.465L464.614 352.357C463.631 353.054 462.269 352.823 461.571 351.84L460.868 350.849C460.868 350.849 457.577 348.707 457.396 343.315C457.396 343.315 462.448 344.051 463.755 336.354L463.376 333.007L477.974 333.215L483.766 330.091C485.033 329.407 485.949 328.508 487.265 329.092Z" fill="#2F2E41"/>
<path d="M350.344 167.602C350.344 167.602 336.012 187.086 364.675 208.992L423.194 190.293L402.294 146.702L383.783 136.551L350.344 167.602Z" fill="#2F2E41"/>
<path d="M423.194 190.293L445.885 234.48L460.216 326.439L442.302 327.633L424.388 240.452L392.74 193.278L414.834 183.127" fill="#2F2E41"/>
<path d="M364.675 195.112V208.992L405.28 253.589C405.28 253.589 405.28 287.028 420.805 302.554L438.719 330.022L454.244 321.662L431.553 241.646L390.948 189.098L364.675 195.112Z" fill="#2F2E41"/>
<path d="M393.529 57.5073L385.88 86.6701L356.717 80.9331C356.717 80.9331 377.066 59.9529 374.197 50.3914L393.529 57.5073Z" fill="#A0616A"/>
<path d="M371.243 61.9092L389.157 70.269C389.157 70.269 398.373 75.9018 398.542 79.6539C398.711 83.406 397.517 101.32 397.517 101.32C397.517 101.32 404.682 108.486 399.905 122.817L402.294 146.702L348.552 175.364L353.329 125.205L350.941 78.6289L371.243 61.9092Z" fill="#3F3D56"/>
<path d="M355.163 197.819C357.261 202.631 361.444 205.45 364.506 204.114C367.569 202.779 368.35 197.796 366.251 192.982C365.439 191.048 364.176 189.336 362.567 187.99L353.422 167.712L343.998 172.206L354.013 191.719C353.904 193.815 354.298 195.907 355.163 197.819Z" fill="#A0616A"/>
<path d="M364.675 81.6144C364.675 81.6144 351.538 73.2545 346.761 82.8087C341.984 92.3628 331.235 141.328 331.235 141.328L346.761 187.904L361.092 181.933L348.552 131.806L364.675 81.6144Z" fill="#3F3D56"/>
<path d="M432.004 190.301C435.727 194.002 440.654 195.081 443.009 192.712C445.365 190.342 444.255 185.421 440.531 181.719C439.063 180.22 437.258 179.094 435.266 178.436L419.294 162.953L412.188 170.603L428.688 185.054C429.359 187.043 430.496 188.842 432.004 190.301Z" fill="#A0616A"/>
<path d="M398.037 78.7654C398.037 78.7654 375.134 77.8287 374.212 88.4707C373.291 99.1128 388.948 146.598 388.948 146.598L420.54 184.179L431.664 173.348L401.539 131.367L398.037 78.7654Z" fill="#3F3D56"/>
<path d="M330.976 164.981L311.845 106.91C296.38 93.2815 279.602 126.095 234.561 107.495L248.728 173.182C282.781 154.773 312.093 147.563 330.976 164.981Z" fill="white"/>
<path d="M248.727 174.895C248.605 174.895 248.483 174.869 248.369 174.816C248.124 174.703 247.946 174.482 247.889 174.218L233.723 108.531C233.656 108.219 233.766 107.896 234.011 107.692C234.256 107.487 234.593 107.436 234.888 107.557C260.475 118.124 276.99 111.833 289.047 107.239C298.214 103.746 305.452 100.99 312.412 107.122C312.527 107.223 312.612 107.352 312.66 107.497L331.791 165.568C331.913 165.939 331.769 166.346 331.44 166.558C331.112 166.768 330.681 166.731 330.395 166.467C313.793 151.153 287.972 153.796 249.135 174.792C249.008 174.86 248.868 174.895 248.727 174.895ZM235.74 109.749L249.325 172.742C286.589 152.786 312.111 149.71 329.204 163.195L311.105 108.258C304.973 103.007 298.537 105.459 289.658 108.842C277.568 113.447 261.1 119.722 235.74 109.749Z" fill="#3F3D56"/>
<path d="M264.228 79.2439L252.123 81.749C252.123 81.749 219.768 99.5548 225.883 106.303C231.999 113.052 257.985 113.914 257.985 113.914L263.353 105.609L256.855 102.565L273.331 88.9723L264.228 79.2439Z" fill="#A0616A"/>
<path d="M297.462 75.5148C297.462 75.5148 285.639 57.3832 274.085 65.4575C262.532 73.5318 252.123 81.7489 252.123 81.7489L266.507 99.9201L297.462 75.5148Z" fill="#E6E6E6"/>
<path d="M278.535 113.729C279.194 110.473 274.449 106.765 267.937 105.447C261.425 104.129 255.612 105.7 254.953 108.956C254.294 112.212 259.039 115.92 265.551 117.238C272.063 118.556 277.876 116.985 278.535 113.729Z" fill="#A0616A"/>
<path d="M502.125 361.772C506.121 361.772 509.36 358.533 509.36 354.537C509.36 350.541 506.121 347.302 502.125 347.302C498.129 347.302 494.89 350.541 494.89 354.537C494.89 358.533 498.129 361.772 502.125 361.772Z" fill="#3F3D56"/>
<path d="M511.771 373C515.767 373 519.006 369.761 519.006 365.765C519.006 361.769 515.767 358.53 511.771 358.53C507.776 358.53 504.536 361.769 504.536 365.765C504.536 369.761 507.776 373 511.771 373Z" fill="#3F3D56"/>
<path d="M584.12 373C588.116 373 591.355 369.761 591.355 365.765C591.355 361.769 588.116 358.53 584.12 358.53C580.125 358.53 576.885 361.769 576.885 365.765C576.885 369.761 580.125 373 584.12 373Z" fill="#3F3D56"/>
<path d="M522.369 257.469V178.888C522.369 170.091 529.726 167.918 538.523 167.918C542.835 167.918 544.931 167.416 547.955 170.49C550.978 173.563 554.347 174.839 554.276 179.15L553.01 256.258L522.369 257.469ZM539.381 173.062C531.529 173.062 524.084 171.036 524.084 178.888V255.685L551.322 254.608L552.561 179.122C552.625 175.275 546.366 175.805 543.668 173.062C540.969 170.319 543.229 173.062 539.381 173.062Z" fill="#3F3D56"/>
<path d="M500.836 256.523L499.735 342.376C499.721 343.481 499.984 344.572 500.501 345.549L508.612 360.869C509.805 363.123 512.189 364.488 514.737 364.375L585.957 361.233C589.603 361.072 592.426 357.984 592.26 354.339L587.797 256.307C587.636 252.782 584.732 250.007 581.203 250.007H507.436C503.823 250.007 500.882 252.911 500.836 256.523Z" fill="#E6E6E6"/>
<path d="M528.906 295.268L527.194 295.182L527.829 282.475C528.171 275.631 533.805 270.146 540.656 269.986L570.987 269.281C577.112 269.173 582.182 273.821 582.522 279.941L583.167 291.56L581.455 291.655L580.81 280.037C580.522 274.845 576.192 270.87 571.027 270.995L540.697 271.7C534.739 271.839 529.839 276.61 529.541 282.56L528.906 295.268Z" fill="#3F3D56"/>
<path d="M527.697 356.809L525.991 356.635L529.69 320.569C530.374 313.9 535.94 308.645 542.636 308.345L572.218 307.018C575.944 306.85 579.486 308.17 582.194 310.733C584.903 313.296 586.416 316.76 586.456 320.488L586.786 351.889L585.072 351.907L584.741 320.507C584.707 317.247 583.384 314.219 581.016 311.979C578.648 309.739 575.54 308.583 572.295 308.732L542.713 310.058C536.859 310.32 531.994 314.914 531.396 320.743L527.697 356.809Z" fill="#3F3D56"/>
<path d="M514.438 354.321L512.723 354.299L513.807 271.885C513.881 266.249 518.352 261.705 523.986 261.539L582.286 259.822L582.337 261.536L524.036 263.254C519.324 263.392 515.584 267.193 515.522 271.907L514.438 354.321Z" fill="#3F3D56"/>
<path d="M514.591 342.577H513.399V267.519C513.399 265.144 511.47 263.206 509.087 263.206H502.424V261.491H509.087C512.233 261.491 514.823 263.917 515.088 266.987C515.106 267.158 515.114 267.339 515.114 267.519V303.058L514.591 342.577Z" fill="#3F3D56"/>
<path d="M405.977 41.9159C405.977 52.9044 397.069 61.8124 386.081 61.8124C375.092 61.8124 366.184 52.9044 366.184 41.9159C366.184 30.9273 375.092 22.0193 386.081 22.0193C397.069 22.0193 405.977 30.9273 405.977 41.9159Z" fill="#A0616A"/>
<path d="M384.493 15.1662C385.068 15.5023 385.84 14.9938 386.024 14.3532C386.209 13.7127 385.994 13.0326 385.78 12.401C385.423 11.3411 385.065 10.2812 384.707 9.22132C383.946 6.96625 383.137 4.63239 381.489 2.91599C379 0.325369 375.044 -0.333674 371.484 0.143777C366.912 0.756922 362.4 3.23285 360.274 7.32712C358.148 11.4214 359.053 17.1344 362.895 19.6888C357.42 25.9642 355.511 32.958 355.812 41.2808C356.114 49.6035 365.183 57.2632 371.098 63.1262C372.419 62.3255 373.62 58.5732 372.893 57.21C372.167 55.8469 373.208 54.2676 372.308 53.012C371.409 51.7564 370.656 53.7557 371.566 52.5072C372.139 51.7194 369.9 49.907 370.753 49.4355C374.879 47.1548 376.251 42.012 378.842 38.0738C381.968 33.3236 387.317 30.1067 392.979 29.573C396.097 29.279 399.391 29.8115 401.947 31.622C404.503 33.4325 406.158 36.6678 405.565 39.7436C407.101 38.1849 407.865 35.9006 407.576 33.7319C407.288 31.5633 405.954 29.5579 404.065 28.4542C405.214 24.656 404.23 20.2869 401.564 17.3476C398.898 14.4084 388.084 14.909 384.192 15.6826L384.493 15.1662Z" fill="#2F2E41"/>
<path d="M383.888 29.6885C378.733 30.2449 375.011 34.7102 371.869 38.8338C370.057 41.2105 368.16 43.8353 368.205 46.8233C368.251 49.8443 370.271 52.4354 371.236 55.2984C372.814 59.978 371.276 65.5457 367.52 68.7521C371.232 69.4564 375.244 66.6737 375.884 62.9509C376.63 58.6171 373.345 54.4343 373.734 50.0541C374.077 46.195 377.118 43.225 379.703 40.3396C382.289 37.4542 384.717 33.6253 383.527 29.9382L383.888 29.6885Z" fill="#2F2E41"/>
</g>
<defs>
<clipPath id="clip0_358_1895">
<rect width="627.344" height="373" fill="white"/>
</clipPath>
</defs>
</svg>
