<svg width="504" height="407" viewBox="0 0 504 407" fill="none" xmlns="http://www.w3.org/2000/svg">
<g clip-path="url(#clip0_319_1604)">
<path d="M289.527 25.4369C314.841 26.253 342.125 31.215 365.21 45.818C388.187 60.0246 406.964 83.8721 413.85 110.933C421.026 137.49 416.813 167.549 405.949 193.451C395.084 219.353 378.178 241.784 359.151 262.661C339.728 283.645 318.58 302.969 292.88 313.315C267.072 323.265 237.002 323.735 213.661 311.328C190.715 298.814 174.895 273.317 149.625 253.775C124.86 234.523 90.934 220.722 83.4583 199.35C76.3789 177.871 96.0387 148.317 105.297 116.469C115.058 84.9104 114.525 51.455 131.881 36.9837C148.84 22.6195 183.687 27.2392 212.675 27.4879C241.374 28.2399 264.213 24.6208 289.527 25.4369Z" fill="url(#paint0_linear_319_1604)"/>
</g>
<defs>
<linearGradient id="paint0_linear_319_1604" x1="126.521" y1="358.888" x2="338.203" y2="-51.2066" gradientUnits="userSpaceOnUse">
<stop stop-color="#FFBF4E"/>
<stop offset="1" stop-color="#FFA402"/>
</linearGradient>
<clipPath id="clip0_319_1604">
<rect width="410.585" height="410.586" fill="white" transform="translate(0 10.0952) rotate(-15.1197)"/>
</clipPath>
</defs>
</svg>
